<svg xmlns="http://www.w3.org/2000/svg" xmlns:xlink="http://www.w3.org/1999/xlink" width="500" zoomAndPan="magnify" viewBox="0 0 375 374.999991" height="500" preserveAspectRatio="xMidYMid meet" version="1.0"><defs><clipPath id="e2d4d68678"><path d="M 0 0 L 375 0 L 375 246.09375 L 0 246.09375 Z M 0 0 " clip-rule="nonzero"/></clipPath><clipPath id="ad56e0ef8d"><path d="M 212.917969 0 C 217.03125 0 221.167969 0 225.273438 0 C 258 4.109375 278.457031 17.792969 287.773438 40.179688 C 342.335938 37.195312 382.007812 79.527344 357.832031 121.074219 C 365.871094 129.804688 372.578125 139.570312 375 152.679688 C 375 156.433594 375 160.179688 375 163.933594 C 367.78125 197.292969 336.71875 219.835938 285.722656 213.765625 C 272.601562 230.894531 249.253906 248.050781 212.925781 245.914062 C 194.144531 244.789062 181.082031 238.273438 169.644531 230.363281 C 157.597656 236.941406 144.546875 242.101562 125.695312 242.160156 C 82.082031 242.253906 52.90625 216.914062 52.199219 182.15625 C 24.160156 174.023438 5.171875 158.84375 0 132.871094 C 0 129.117188 0 125.355469 0 121.617188 C 5.707031 95.878906 23.664062 79.714844 53.566406 72.859375 C 51.769531 29.445312 111.574219 2.3125 160.710938 21.441406 C 172.40625 11.984375 188.957031 1.667969 212.917969 0 Z M 212.917969 0 " clip-rule="nonzero"/></clipPath><linearGradient x1="0" gradientTransform="matrix(1.464844, 0, 0, 0.961304, 0.0000045, 0)" y1="0" x2="255.999988" gradientUnits="userSpaceOnUse" y2="0" id="8e2ec6fb92"><stop stop-opacity="1" stop-color="rgb(36.499023%, 87.799072%, 90.19928%)" offset="0"/><stop stop-opacity="1" stop-color="rgb(36.355591%, 87.568665%, 90.110779%)" offset="0.00390625"/><stop stop-opacity="1" stop-color="rgb(36.213684%, 87.339783%, 90.023804%)" offset="0.0078125"/><stop stop-opacity="1" stop-color="rgb(36.070251%, 87.109375%, 89.936829%)" offset="0.0117188"/><stop stop-opacity="1" stop-color="rgb(35.928345%, 86.880493%, 89.849854%)" offset="0.015625"/><stop stop-opacity="1" stop-color="rgb(35.786438%, 86.650085%, 89.761353%)" offset="0.0195313"/><stop stop-opacity="1" stop-color="rgb(35.644531%, 86.421204%, 89.674377%)" offset="0.0234375"/><stop stop-opacity="1" stop-color="rgb(35.501099%, 86.190796%, 89.585876%)" offset="0.0273438"/><stop stop-opacity="1" stop-color="rgb(35.359192%, 85.961914%, 89.498901%)" offset="0.03125"/><stop stop-opacity="1" stop-color="rgb(35.215759%, 85.731506%, 89.411926%)" offset="0.0351562"/><stop stop-opacity="1" stop-color="rgb(35.073853%, 85.502625%, 89.324951%)" offset="0.0390625"/><stop stop-opacity="1" stop-color="rgb(34.93042%, 85.272217%, 89.23645%)" offset="0.0429688"/><stop stop-opacity="1" stop-color="rgb(34.788513%, 85.043335%, 89.149475%)" offset="0.046875"/><stop stop-opacity="1" stop-color="rgb(34.645081%, 84.812927%, 89.060974%)" offset="0.0507812"/><stop stop-opacity="1" stop-color="rgb(34.503174%, 84.584045%, 88.973999%)" offset="0.0546875"/><stop stop-opacity="1" stop-color="rgb(34.359741%, 84.353638%, 88.885498%)" offset="0.0585938"/><stop stop-opacity="1" stop-color="rgb(34.217834%, 84.124756%, 88.798523%)" offset="0.0625"/><stop stop-opacity="1" stop-color="rgb(34.074402%, 83.894348%, 88.711548%)" offset="0.0664062"/><stop stop-opacity="1" stop-color="rgb(33.932495%, 83.665466%, 88.624573%)" offset="0.0703125"/><stop stop-opacity="1" stop-color="rgb(33.789062%, 83.435059%, 88.536072%)" offset="0.0742188"/><stop stop-opacity="1" stop-color="rgb(33.647156%, 83.206177%, 88.449097%)" offset="0.078125"/><stop stop-opacity="1" stop-color="rgb(33.503723%, 82.975769%, 88.360596%)" offset="0.0820312"/><stop stop-opacity="1" stop-color="rgb(33.361816%, 82.745361%, 88.273621%)" offset="0.0859375"/><stop stop-opacity="1" stop-color="rgb(33.21991%, 82.514954%, 88.186646%)" offset="0.0898438"/><stop stop-opacity="1" stop-color="rgb(33.078003%, 82.286072%, 88.09967%)" offset="0.09375"/><stop stop-opacity="1" stop-color="rgb(32.93457%, 82.055664%, 88.011169%)" offset="0.0976562"/><stop stop-opacity="1" stop-color="rgb(32.792664%, 81.826782%, 87.924194%)" offset="0.101562"/><stop stop-opacity="1" stop-color="rgb(32.649231%, 81.596375%, 87.835693%)" offset="0.105469"/><stop stop-opacity="1" stop-color="rgb(32.507324%, 81.367493%, 87.748718%)" offset="0.109375"/><stop stop-opacity="1" stop-color="rgb(32.363892%, 81.137085%, 87.661743%)" offset="0.113281"/><stop stop-opacity="1" stop-color="rgb(32.221985%, 80.908203%, 87.574768%)" offset="0.117188"/><stop stop-opacity="1" stop-color="rgb(32.078552%, 80.677795%, 87.486267%)" offset="0.121094"/><stop stop-opacity="1" stop-color="rgb(31.936646%, 80.448914%, 87.399292%)" offset="0.125"/><stop stop-opacity="1" stop-color="rgb(31.793213%, 80.218506%, 87.310791%)" offset="0.128906"/><stop stop-opacity="1" stop-color="rgb(31.651306%, 79.989624%, 87.223816%)" offset="0.132812"/><stop stop-opacity="1" stop-color="rgb(31.507874%, 79.759216%, 87.136841%)" offset="0.136719"/><stop stop-opacity="1" stop-color="rgb(31.365967%, 79.530334%, 87.049866%)" offset="0.140625"/><stop stop-opacity="1" stop-color="rgb(31.222534%, 79.299927%, 86.961365%)" offset="0.144531"/><stop stop-opacity="1" stop-color="rgb(31.080627%, 79.071045%, 86.87439%)" offset="0.148438"/><stop stop-opacity="1" stop-color="rgb(30.938721%, 78.840637%, 86.785889%)" offset="0.152344"/><stop stop-opacity="1" stop-color="rgb(30.796814%, 78.611755%, 86.698914%)" offset="0.15625"/><stop stop-opacity="1" stop-color="rgb(30.653381%, 78.381348%, 86.611938%)" offset="0.160156"/><stop stop-opacity="1" stop-color="rgb(30.511475%, 78.152466%, 86.524963%)" offset="0.164062"/><stop stop-opacity="1" stop-color="rgb(30.368042%, 77.922058%, 86.436462%)" offset="0.167969"/><stop stop-opacity="1" stop-color="rgb(30.226135%, 77.693176%, 86.349487%)" offset="0.171875"/><stop stop-opacity="1" stop-color="rgb(30.082703%, 77.462769%, 86.260986%)" offset="0.175781"/><stop stop-opacity="1" stop-color="rgb(29.940796%, 77.233887%, 86.174011%)" offset="0.179688"/><stop stop-opacity="1" stop-color="rgb(29.797363%, 77.003479%, 86.08551%)" offset="0.183594"/><stop stop-opacity="1" stop-color="rgb(29.655457%, 76.774597%, 85.998535%)" offset="0.1875"/><stop stop-opacity="1" stop-color="rgb(29.512024%, 76.544189%, 85.91156%)" offset="0.191406"/><stop stop-opacity="1" stop-color="rgb(29.370117%, 76.315308%, 85.824585%)" offset="0.195312"/><stop stop-opacity="1" stop-color="rgb(29.226685%, 76.0849%, 85.736084%)" offset="0.199219"/><stop stop-opacity="1" stop-color="rgb(29.084778%, 75.856018%, 85.649109%)" offset="0.203125"/><stop stop-opacity="1" stop-color="rgb(28.941345%, 75.62561%, 85.560608%)" offset="0.207031"/><stop stop-opacity="1" stop-color="rgb(28.799438%, 75.396729%, 85.473633%)" offset="0.210938"/><stop stop-opacity="1" stop-color="rgb(28.657532%, 75.166321%, 85.386658%)" offset="0.214844"/><stop stop-opacity="1" stop-color="rgb(28.515625%, 74.937439%, 85.299683%)" offset="0.21875"/><stop stop-opacity="1" stop-color="rgb(28.372192%, 74.707031%, 85.211182%)" offset="0.222656"/><stop stop-opacity="1" stop-color="rgb(28.230286%, 74.476624%, 85.124207%)" offset="0.226562"/><stop stop-opacity="1" stop-color="rgb(28.086853%, 74.246216%, 85.035706%)" offset="0.230469"/><stop stop-opacity="1" stop-color="rgb(27.944946%, 74.017334%, 84.94873%)" offset="0.234375"/><stop stop-opacity="1" stop-color="rgb(27.801514%, 73.786926%, 84.861755%)" offset="0.238281"/><stop stop-opacity="1" stop-color="rgb(27.659607%, 73.558044%, 84.77478%)" offset="0.242188"/><stop stop-opacity="1" stop-color="rgb(27.516174%, 73.327637%, 84.686279%)" offset="0.246094"/><stop stop-opacity="1" stop-color="rgb(27.374268%, 73.098755%, 84.599304%)" offset="0.25"/><stop stop-opacity="1" stop-color="rgb(27.230835%, 72.868347%, 84.510803%)" offset="0.253906"/><stop stop-opacity="1" stop-color="rgb(27.088928%, 72.639465%, 84.423828%)" offset="0.257812"/><stop stop-opacity="1" stop-color="rgb(26.945496%, 72.409058%, 84.336853%)" offset="0.261719"/><stop stop-opacity="1" stop-color="rgb(26.803589%, 72.180176%, 84.249878%)" offset="0.265625"/><stop stop-opacity="1" stop-color="rgb(26.660156%, 71.949768%, 84.161377%)" offset="0.269531"/><stop stop-opacity="1" stop-color="rgb(26.51825%, 71.720886%, 84.074402%)" offset="0.273438"/><stop stop-opacity="1" stop-color="rgb(26.374817%, 71.490479%, 83.985901%)" offset="0.277344"/><stop stop-opacity="1" stop-color="rgb(26.23291%, 71.261597%, 83.898926%)" offset="0.28125"/><stop stop-opacity="1" stop-color="rgb(26.091003%, 71.031189%, 83.811951%)" offset="0.285156"/><stop stop-opacity="1" stop-color="rgb(25.949097%, 70.802307%, 83.724976%)" offset="0.289063"/><stop stop-opacity="1" stop-color="rgb(25.805664%, 70.571899%, 83.636475%)" offset="0.292969"/><stop stop-opacity="1" stop-color="rgb(25.663757%, 70.343018%, 83.5495%)" offset="0.296875"/><stop stop-opacity="1" stop-color="rgb(25.520325%, 70.11261%, 83.460999%)" offset="0.300781"/><stop stop-opacity="1" stop-color="rgb(25.378418%, 69.883728%, 83.374023%)" offset="0.304688"/><stop stop-opacity="1" stop-color="rgb(25.234985%, 69.65332%, 83.285522%)" offset="0.308594"/><stop stop-opacity="1" stop-color="rgb(25.093079%, 69.424438%, 83.198547%)" offset="0.3125"/><stop stop-opacity="1" stop-color="rgb(24.949646%, 69.194031%, 83.111572%)" offset="0.316406"/><stop stop-opacity="1" stop-color="rgb(24.807739%, 68.965149%, 83.024597%)" offset="0.320312"/><stop stop-opacity="1" stop-color="rgb(24.664307%, 68.734741%, 82.936096%)" offset="0.324219"/><stop stop-opacity="1" stop-color="rgb(24.5224%, 68.505859%, 82.849121%)" offset="0.328125"/><stop stop-opacity="1" stop-color="rgb(24.378967%, 68.275452%, 82.76062%)" offset="0.332031"/><stop stop-opacity="1" stop-color="rgb(24.237061%, 68.04657%, 82.673645%)" offset="0.335938"/><stop stop-opacity="1" stop-color="rgb(24.093628%, 67.816162%, 82.58667%)" offset="0.339844"/><stop stop-opacity="1" stop-color="rgb(23.951721%, 67.58728%, 82.499695%)" offset="0.34375"/><stop stop-opacity="1" stop-color="rgb(23.809814%, 67.356873%, 82.411194%)" offset="0.347656"/><stop stop-opacity="1" stop-color="rgb(23.667908%, 67.127991%, 82.324219%)" offset="0.351562"/><stop stop-opacity="1" stop-color="rgb(23.524475%, 66.897583%, 82.235718%)" offset="0.355469"/><stop stop-opacity="1" stop-color="rgb(23.382568%, 66.668701%, 82.148743%)" offset="0.359375"/><stop stop-opacity="1" stop-color="rgb(23.239136%, 66.438293%, 82.061768%)" offset="0.363281"/><stop stop-opacity="1" stop-color="rgb(23.097229%, 66.207886%, 81.974792%)" offset="0.367188"/><stop stop-opacity="1" stop-color="rgb(22.953796%, 65.977478%, 81.886292%)" offset="0.371094"/><stop stop-opacity="1" stop-color="rgb(22.81189%, 65.748596%, 81.799316%)" offset="0.375"/><stop stop-opacity="1" stop-color="rgb(22.668457%, 65.518188%, 81.710815%)" offset="0.378906"/><stop stop-opacity="1" stop-color="rgb(22.52655%, 65.289307%, 81.62384%)" offset="0.382812"/><stop stop-opacity="1" stop-color="rgb(22.383118%, 65.058899%, 81.536865%)" offset="0.386719"/><stop stop-opacity="1" stop-color="rgb(22.241211%, 64.830017%, 81.44989%)" offset="0.390625"/><stop stop-opacity="1" stop-color="rgb(22.097778%, 64.599609%, 81.361389%)" offset="0.394531"/><stop stop-opacity="1" stop-color="rgb(21.955872%, 64.370728%, 81.274414%)" offset="0.398438"/><stop stop-opacity="1" stop-color="rgb(21.812439%, 64.14032%, 81.185913%)" offset="0.402344"/><stop stop-opacity="1" stop-color="rgb(21.670532%, 63.911438%, 81.098938%)" offset="0.40625"/><stop stop-opacity="1" stop-color="rgb(21.528625%, 63.68103%, 81.011963%)" offset="0.410156"/><stop stop-opacity="1" stop-color="rgb(21.386719%, 63.452148%, 80.924988%)" offset="0.414062"/><stop stop-opacity="1" stop-color="rgb(21.243286%, 63.221741%, 80.836487%)" offset="0.417969"/><stop stop-opacity="1" stop-color="rgb(21.101379%, 62.992859%, 80.749512%)" offset="0.421875"/><stop stop-opacity="1" stop-color="rgb(20.957947%, 62.762451%, 80.661011%)" offset="0.425781"/><stop stop-opacity="1" stop-color="rgb(20.81604%, 62.533569%, 80.574036%)" offset="0.429688"/><stop stop-opacity="1" stop-color="rgb(20.672607%, 62.303162%, 80.485535%)" offset="0.433594"/><stop stop-opacity="1" stop-color="rgb(20.530701%, 62.07428%, 80.39856%)" offset="0.4375"/><stop stop-opacity="1" stop-color="rgb(20.387268%, 61.843872%, 80.311584%)" offset="0.441406"/><stop stop-opacity="1" stop-color="rgb(20.245361%, 61.61499%, 80.224609%)" offset="0.445312"/><stop stop-opacity="1" stop-color="rgb(20.101929%, 61.384583%, 80.136108%)" offset="0.449219"/><stop stop-opacity="1" stop-color="rgb(19.960022%, 61.155701%, 80.049133%)" offset="0.453125"/><stop stop-opacity="1" stop-color="rgb(19.816589%, 60.925293%, 79.960632%)" offset="0.457031"/><stop stop-opacity="1" stop-color="rgb(19.674683%, 60.696411%, 79.873657%)" offset="0.460938"/><stop stop-opacity="1" stop-color="rgb(19.53125%, 60.466003%, 79.786682%)" offset="0.464844"/><stop stop-opacity="1" stop-color="rgb(19.389343%, 60.237122%, 79.699707%)" offset="0.46875"/><stop stop-opacity="1" stop-color="rgb(19.245911%, 60.006714%, 79.611206%)" offset="0.472656"/><stop stop-opacity="1" stop-color="rgb(19.104004%, 59.777832%, 79.524231%)" offset="0.476562"/><stop stop-opacity="1" stop-color="rgb(18.962097%, 59.547424%, 79.43573%)" offset="0.480469"/><stop stop-opacity="1" stop-color="rgb(18.82019%, 59.318542%, 79.348755%)" offset="0.484375"/><stop stop-opacity="1" stop-color="rgb(18.676758%, 59.088135%, 79.26178%)" offset="0.488281"/><stop stop-opacity="1" stop-color="rgb(18.534851%, 58.859253%, 79.174805%)" offset="0.492188"/><stop stop-opacity="1" stop-color="rgb(18.391418%, 58.628845%, 79.086304%)" offset="0.496094"/><stop stop-opacity="1" stop-color="rgb(18.249512%, 58.399963%, 78.999329%)" offset="0.5"/><stop stop-opacity="1" stop-color="rgb(18.106079%, 58.169556%, 78.910828%)" offset="0.503906"/><stop stop-opacity="1" stop-color="rgb(17.964172%, 57.939148%, 78.823853%)" offset="0.507812"/><stop stop-opacity="1" stop-color="rgb(17.82074%, 57.70874%, 78.736877%)" offset="0.511719"/><stop stop-opacity="1" stop-color="rgb(17.678833%, 57.479858%, 78.649902%)" offset="0.515625"/><stop stop-opacity="1" stop-color="rgb(17.5354%, 57.249451%, 78.561401%)" offset="0.519531"/><stop stop-opacity="1" stop-color="rgb(17.393494%, 57.020569%, 78.474426%)" offset="0.523438"/><stop stop-opacity="1" stop-color="rgb(17.250061%, 56.790161%, 78.385925%)" offset="0.527344"/><stop stop-opacity="1" stop-color="rgb(17.108154%, 56.561279%, 78.29895%)" offset="0.53125"/><stop stop-opacity="1" stop-color="rgb(16.964722%, 56.330872%, 78.211975%)" offset="0.535156"/><stop stop-opacity="1" stop-color="rgb(16.822815%, 56.10199%, 78.125%)" offset="0.539062"/><stop stop-opacity="1" stop-color="rgb(16.680908%, 55.871582%, 78.036499%)" offset="0.542969"/><stop stop-opacity="1" stop-color="rgb(16.539001%, 55.6427%, 77.949524%)" offset="0.546875"/><stop stop-opacity="1" stop-color="rgb(16.395569%, 55.412292%, 77.861023%)" offset="0.550781"/><stop stop-opacity="1" stop-color="rgb(16.253662%, 55.183411%, 77.774048%)" offset="0.554688"/><stop stop-opacity="1" stop-color="rgb(16.110229%, 54.953003%, 77.685547%)" offset="0.558594"/><stop stop-opacity="1" stop-color="rgb(15.968323%, 54.724121%, 77.598572%)" offset="0.5625"/><stop stop-opacity="1" stop-color="rgb(15.82489%, 54.493713%, 77.511597%)" offset="0.566406"/><stop stop-opacity="1" stop-color="rgb(15.682983%, 54.264832%, 77.424622%)" offset="0.570312"/><stop stop-opacity="1" stop-color="rgb(15.539551%, 54.034424%, 77.336121%)" offset="0.574219"/><stop stop-opacity="1" stop-color="rgb(15.397644%, 53.805542%, 77.249146%)" offset="0.578125"/><stop stop-opacity="1" stop-color="rgb(15.254211%, 53.575134%, 77.160645%)" offset="0.582031"/><stop stop-opacity="1" stop-color="rgb(15.112305%, 53.346252%, 77.073669%)" offset="0.585938"/><stop stop-opacity="1" stop-color="rgb(14.968872%, 53.115845%, 76.986694%)" offset="0.589844"/><stop stop-opacity="1" stop-color="rgb(14.826965%, 52.886963%, 76.899719%)" offset="0.59375"/><stop stop-opacity="1" stop-color="rgb(14.683533%, 52.656555%, 76.811218%)" offset="0.597656"/><stop stop-opacity="1" stop-color="rgb(14.541626%, 52.427673%, 76.724243%)" offset="0.601563"/><stop stop-opacity="1" stop-color="rgb(14.399719%, 52.197266%, 76.635742%)" offset="0.605469"/><stop stop-opacity="1" stop-color="rgb(14.257812%, 51.968384%, 76.548767%)" offset="0.609375"/><stop stop-opacity="1" stop-color="rgb(14.11438%, 51.737976%, 76.461792%)" offset="0.613281"/><stop stop-opacity="1" stop-color="rgb(13.972473%, 51.509094%, 76.374817%)" offset="0.617188"/><stop stop-opacity="1" stop-color="rgb(13.829041%, 51.278687%, 76.286316%)" offset="0.621094"/><stop stop-opacity="1" stop-color="rgb(13.687134%, 51.049805%, 76.199341%)" offset="0.625"/><stop stop-opacity="1" stop-color="rgb(13.543701%, 50.819397%, 76.11084%)" offset="0.628906"/><stop stop-opacity="1" stop-color="rgb(13.401794%, 50.590515%, 76.023865%)" offset="0.632812"/><stop stop-opacity="1" stop-color="rgb(13.258362%, 50.360107%, 75.93689%)" offset="0.636719"/><stop stop-opacity="1" stop-color="rgb(13.116455%, 50.131226%, 75.849915%)" offset="0.640625"/><stop stop-opacity="1" stop-color="rgb(12.973022%, 49.900818%, 75.761414%)" offset="0.644531"/><stop stop-opacity="1" stop-color="rgb(12.831116%, 49.67041%, 75.674438%)" offset="0.648438"/><stop stop-opacity="1" stop-color="rgb(12.687683%, 49.440002%, 75.585938%)" offset="0.652344"/><stop stop-opacity="1" stop-color="rgb(12.545776%, 49.211121%, 75.498962%)" offset="0.65625"/><stop stop-opacity="1" stop-color="rgb(12.402344%, 48.980713%, 75.410461%)" offset="0.660156"/><stop stop-opacity="1" stop-color="rgb(12.260437%, 48.751831%, 75.323486%)" offset="0.664063"/><stop stop-opacity="1" stop-color="rgb(12.117004%, 48.521423%, 75.236511%)" offset="0.667969"/><stop stop-opacity="1" stop-color="rgb(11.975098%, 48.292542%, 75.149536%)" offset="0.671875"/><stop stop-opacity="1" stop-color="rgb(11.833191%, 48.062134%, 75.061035%)" offset="0.675781"/><stop stop-opacity="1" stop-color="rgb(11.691284%, 47.833252%, 74.97406%)" offset="0.679688"/><stop stop-opacity="1" stop-color="rgb(11.547852%, 47.602844%, 74.885559%)" offset="0.683594"/><stop stop-opacity="1" stop-color="rgb(11.405945%, 47.373962%, 74.798584%)" offset="0.6875"/><stop stop-opacity="1" stop-color="rgb(11.262512%, 47.143555%, 74.711609%)" offset="0.691406"/><stop stop-opacity="1" stop-color="rgb(11.120605%, 46.914673%, 74.624634%)" offset="0.695313"/><stop stop-opacity="1" stop-color="rgb(10.977173%, 46.684265%, 74.536133%)" offset="0.699219"/><stop stop-opacity="1" stop-color="rgb(10.835266%, 46.455383%, 74.449158%)" offset="0.703125"/><stop stop-opacity="1" stop-color="rgb(10.691833%, 46.224976%, 74.360657%)" offset="0.707031"/><stop stop-opacity="1" stop-color="rgb(10.549927%, 45.996094%, 74.273682%)" offset="0.710938"/><stop stop-opacity="1" stop-color="rgb(10.406494%, 45.765686%, 74.186707%)" offset="0.714844"/><stop stop-opacity="1" stop-color="rgb(10.264587%, 45.536804%, 74.099731%)" offset="0.71875"/><stop stop-opacity="1" stop-color="rgb(10.121155%, 45.306396%, 74.01123%)" offset="0.722656"/><stop stop-opacity="1" stop-color="rgb(9.979248%, 45.077515%, 73.924255%)" offset="0.726562"/><stop stop-opacity="1" stop-color="rgb(9.835815%, 44.847107%, 73.835754%)" offset="0.730469"/><stop stop-opacity="1" stop-color="rgb(9.693909%, 44.618225%, 73.748779%)" offset="0.734375"/><stop stop-opacity="1" stop-color="rgb(9.552002%, 44.387817%, 73.661804%)" offset="0.738281"/><stop stop-opacity="1" stop-color="rgb(9.410095%, 44.158936%, 73.574829%)" offset="0.742188"/><stop stop-opacity="1" stop-color="rgb(9.266663%, 43.928528%, 73.486328%)" offset="0.746094"/><stop stop-opacity="1" stop-color="rgb(9.124756%, 43.699646%, 73.399353%)" offset="0.75"/><stop stop-opacity="1" stop-color="rgb(8.981323%, 43.469238%, 73.310852%)" offset="0.753906"/><stop stop-opacity="1" stop-color="rgb(8.839417%, 43.240356%, 73.223877%)" offset="0.757812"/><stop stop-opacity="1" stop-color="rgb(8.695984%, 43.009949%, 73.136902%)" offset="0.761719"/><stop stop-opacity="1" stop-color="rgb(8.554077%, 42.781067%, 73.049927%)" offset="0.765625"/><stop stop-opacity="1" stop-color="rgb(8.410645%, 42.550659%, 72.961426%)" offset="0.769531"/><stop stop-opacity="1" stop-color="rgb(8.268738%, 42.321777%, 72.874451%)" offset="0.773438"/><stop stop-opacity="1" stop-color="rgb(8.125305%, 42.09137%, 72.78595%)" offset="0.777344"/><stop stop-opacity="1" stop-color="rgb(7.983398%, 41.862488%, 72.698975%)" offset="0.78125"/><stop stop-opacity="1" stop-color="rgb(7.839966%, 41.63208%, 72.610474%)" offset="0.785156"/><stop stop-opacity="1" stop-color="rgb(7.698059%, 41.401672%, 72.523499%)" offset="0.789062"/><stop stop-opacity="1" stop-color="rgb(7.554626%, 41.171265%, 72.436523%)" offset="0.792969"/><stop stop-opacity="1" stop-color="rgb(7.41272%, 40.942383%, 72.349548%)" offset="0.796875"/><stop stop-opacity="1" stop-color="rgb(7.270813%, 40.711975%, 72.261047%)" offset="0.800781"/><stop stop-opacity="1" stop-color="rgb(7.128906%, 40.483093%, 72.174072%)" offset="0.804688"/><stop stop-opacity="1" stop-color="rgb(6.985474%, 40.252686%, 72.085571%)" offset="0.808594"/><stop stop-opacity="1" stop-color="rgb(6.843567%, 40.023804%, 71.998596%)" offset="0.8125"/><stop stop-opacity="1" stop-color="rgb(6.700134%, 39.793396%, 71.911621%)" offset="0.816406"/><stop stop-opacity="1" stop-color="rgb(6.558228%, 39.564514%, 71.824646%)" offset="0.820313"/><stop stop-opacity="1" stop-color="rgb(6.414795%, 39.334106%, 71.736145%)" offset="0.824219"/><stop stop-opacity="1" stop-color="rgb(6.272888%, 39.105225%, 71.64917%)" offset="0.828125"/><stop stop-opacity="1" stop-color="rgb(6.129456%, 38.874817%, 71.560669%)" offset="0.832031"/><stop stop-opacity="1" stop-color="rgb(5.987549%, 38.645935%, 71.473694%)" offset="0.835938"/><stop stop-opacity="1" stop-color="rgb(5.844116%, 38.415527%, 71.386719%)" offset="0.839844"/><stop stop-opacity="1" stop-color="rgb(5.702209%, 38.186646%, 71.299744%)" offset="0.84375"/><stop stop-opacity="1" stop-color="rgb(5.558777%, 37.956238%, 71.211243%)" offset="0.847656"/><stop stop-opacity="1" stop-color="rgb(5.41687%, 37.727356%, 71.124268%)" offset="0.851562"/><stop stop-opacity="1" stop-color="rgb(5.273438%, 37.496948%, 71.035767%)" offset="0.855469"/><stop stop-opacity="1" stop-color="rgb(5.131531%, 37.268066%, 70.948792%)" offset="0.859375"/><stop stop-opacity="1" stop-color="rgb(4.988098%, 37.037659%, 70.861816%)" offset="0.863281"/><stop stop-opacity="1" stop-color="rgb(4.846191%, 36.808777%, 70.774841%)" offset="0.867188"/><stop stop-opacity="1" stop-color="rgb(4.704285%, 36.578369%, 70.68634%)" offset="0.871094"/><stop stop-opacity="1" stop-color="rgb(4.562378%, 36.349487%, 70.599365%)" offset="0.875"/><stop stop-opacity="1" stop-color="rgb(4.418945%, 36.11908%, 70.510864%)" offset="0.878906"/><stop stop-opacity="1" stop-color="rgb(4.277039%, 35.890198%, 70.423889%)" offset="0.882812"/><stop stop-opacity="1" stop-color="rgb(4.133606%, 35.65979%, 70.336914%)" offset="0.886719"/><stop stop-opacity="1" stop-color="rgb(3.991699%, 35.430908%, 70.249939%)" offset="0.890625"/><stop stop-opacity="1" stop-color="rgb(3.848267%, 35.2005%, 70.161438%)" offset="0.894531"/><stop stop-opacity="1" stop-color="rgb(3.70636%, 34.971619%, 70.074463%)" offset="0.898438"/><stop stop-opacity="1" stop-color="rgb(3.562927%, 34.741211%, 69.985962%)" offset="0.902344"/><stop stop-opacity="1" stop-color="rgb(3.421021%, 34.512329%, 69.898987%)" offset="0.90625"/><stop stop-opacity="1" stop-color="rgb(3.277588%, 34.281921%, 69.810486%)" offset="0.910156"/><stop stop-opacity="1" stop-color="rgb(3.135681%, 34.05304%, 69.723511%)" offset="0.914062"/><stop stop-opacity="1" stop-color="rgb(2.992249%, 33.822632%, 69.636536%)" offset="0.917969"/><stop stop-opacity="1" stop-color="rgb(2.850342%, 33.59375%, 69.549561%)" offset="0.921875"/><stop stop-opacity="1" stop-color="rgb(2.706909%, 33.363342%, 69.46106%)" offset="0.925781"/><stop stop-opacity="1" stop-color="rgb(2.565002%, 33.132935%, 69.374084%)" offset="0.929688"/><stop stop-opacity="1" stop-color="rgb(2.423096%, 32.902527%, 69.285583%)" offset="0.933594"/><stop stop-opacity="1" stop-color="rgb(2.281189%, 32.673645%, 69.198608%)" offset="0.9375"/><stop stop-opacity="1" stop-color="rgb(2.137756%, 32.443237%, 69.111633%)" offset="0.941406"/><stop stop-opacity="1" stop-color="rgb(1.99585%, 32.214355%, 69.024658%)" offset="0.945312"/><stop stop-opacity="1" stop-color="rgb(1.852417%, 31.983948%, 68.936157%)" offset="0.949219"/><stop stop-opacity="1" stop-color="rgb(1.71051%, 31.755066%, 68.849182%)" offset="0.953125"/><stop stop-opacity="1" stop-color="rgb(1.567078%, 31.524658%, 68.760681%)" offset="0.957031"/><stop stop-opacity="1" stop-color="rgb(1.425171%, 31.295776%, 68.673706%)" offset="0.960938"/><stop stop-opacity="1" stop-color="rgb(1.281738%, 31.065369%, 68.586731%)" offset="0.964844"/><stop stop-opacity="1" stop-color="rgb(1.139832%, 30.836487%, 68.499756%)" offset="0.96875"/><stop stop-opacity="1" stop-color="rgb(0.996399%, 30.606079%, 68.411255%)" offset="0.972656"/><stop stop-opacity="1" stop-color="rgb(0.854492%, 30.377197%, 68.32428%)" offset="0.976562"/><stop stop-opacity="1" stop-color="rgb(0.71106%, 30.14679%, 68.235779%)" offset="0.980469"/><stop stop-opacity="1" stop-color="rgb(0.569153%, 29.917908%, 68.148804%)" offset="0.984375"/><stop stop-opacity="1" stop-color="rgb(0.42572%, 29.6875%, 68.061829%)" offset="0.988281"/><stop stop-opacity="1" stop-color="rgb(0.283813%, 29.458618%, 67.974854%)" offset="0.992188"/><stop stop-opacity="1" stop-color="rgb(0.141907%, 29.22821%, 67.886353%)" offset="0.996094"/><stop stop-opacity="1" stop-color="rgb(0%, 28.999329%, 67.799377%)" offset="1"/></linearGradient><clipPath id="3da2d6a4d7"><path d="M 65.082031 90 L 309.582031 90 L 309.582031 309.5 L 65.082031 309.5 Z M 65.082031 90 " clip-rule="nonzero"/></clipPath></defs><g clip-path="url(#e2d4d68678)"><g clip-path="url(#ad56e0ef8d)"><path fill="url(#8e2ec6fb92)" d="M 0 0 L 0 246.09375 L 375 246.09375 L 375 0 Z M 0 0 " fill-rule="nonzero"/></g></g><path fill="#c45b52" d="M 225.726562 235.347656 L 187.488281 233.738281 C 187.488281 233.738281 138.070312 251.578125 120.734375 224.582031 C 98.96875 190.683594 124.210938 174.226562 135.988281 163.226562 C 145.996094 153.875 144.382812 127.175781 144.484375 125.296875 C 144.46875 99.351562 148.90625 83.835938 163.300781 75.324219 C 179.117188 65.976562 193.125 68.808594 193.125 68.808594 C 193.125 68.808594 210.03125 67.144531 220.453125 83.507812 C 227.5625 94.664062 230.085938 109.617188 230.824219 125.269531 C 233.546875 183.160156 258.421875 167.511719 261.921875 199.457031 C 264.910156 226.769531 225.726562 235.347656 225.726562 235.347656 Z M 83.835938 253.070312 L 87.183594 253.464844 C 87.625 253.496094 87.96875 253.859375 87.992188 254.308594 L 88.539062 266.128906 L 88.441406 268.417969 L 88.601562 268.660156 C 88.601562 268.660156 82.792969 283.957031 79.496094 293.832031 L 104.332031 293.953125 C 101.078125 285.148438 94.496094 268.898438 94.367188 268.617188 L 94.507812 254.089844 C 94.511719 253.640625 94.84375 253.261719 95.285156 253.214844 L 98.890625 252.765625 C 99.234375 252.726562 99.523438 252.488281 99.625 252.148438 L 100.5625 250.558594 C 100.742188 249.980469 100.320312 249.394531 99.726562 249.398438 L 83.679688 249.460938 C 83.171875 249.464844 82.777344 249.90625 82.820312 250.425781 L 83.035156 252.257812 C 83.070312 252.695312 83.410156 253.039062 83.835938 253.070312 Z M 83.835938 253.070312 " fill-opacity="1" fill-rule="nonzero"/><path fill="#004aad" d="M 254.042969 295.039062 C 225.671875 292.3125 149.21875 292.3125 120.84375 295.039062 C 93.246094 286.46875 107.046875 252.375 113.011719 228.136719 C 113.011719 228.136719 117.3125 195.117188 127.453125 183.722656 C 137.59375 172.324219 160.078125 169.816406 160.078125 169.816406 C 161.871094 174.136719 165.121094 177.472656 168.773438 180.019531 C 173.785156 183.511719 179.523438 185.4375 185.335938 185.8125 C 185.578125 185.828125 185.824219 185.84375 186.066406 185.855469 C 186.292969 185.863281 186.515625 185.867188 186.738281 185.875 C 186.976562 185.878906 187.210938 185.882812 187.445312 185.882812 C 187.679688 185.882812 187.914062 185.878906 188.148438 185.875 C 188.371094 185.867188 188.597656 185.863281 188.820312 185.855469 C 189.066406 185.84375 189.308594 185.828125 189.550781 185.8125 C 195.367188 185.4375 201.101562 183.511719 206.113281 180.019531 C 209.765625 177.472656 213.015625 174.136719 214.808594 169.816406 C 214.808594 169.816406 237.296875 172.324219 247.433594 183.722656 C 257.574219 195.117188 261.878906 228.136719 261.878906 228.136719 C 267.84375 252.375 281.640625 286.46875 254.042969 295.039062 Z M 254.042969 295.039062 C 225.671875 292.3125 149.21875 292.3125 120.84375 295.039062 C 93.246094 286.46875 107.046875 252.375 113.011719 228.136719 C 113.011719 228.136719 117.3125 195.117188 127.453125 183.722656 C 137.59375 172.324219 160.078125 169.816406 160.078125 169.816406 C 161.871094 174.136719 165.121094 177.472656 168.773438 180.019531 C 173.785156 183.511719 179.523438 185.4375 185.335938 185.8125 C 185.578125 185.828125 185.824219 185.84375 186.066406 185.855469 C 186.292969 185.863281 186.515625 185.867188 186.738281 185.875 C 186.976562 185.878906 187.210938 185.882812 187.445312 185.882812 C 187.679688 185.882812 187.914062 185.878906 188.148438 185.875 C 188.371094 185.867188 188.597656 185.863281 188.820312 185.855469 C 189.066406 185.84375 189.308594 185.828125 189.550781 185.8125 C 195.367188 185.4375 201.101562 183.511719 206.113281 180.019531 C 209.765625 177.472656 213.015625 174.136719 214.808594 169.816406 C 214.808594 169.816406 237.296875 172.324219 247.433594 183.722656 C 257.574219 195.117188 261.878906 228.136719 261.878906 228.136719 C 267.84375 252.375 281.640625 286.46875 254.042969 295.039062 Z M 254.042969 295.039062 " fill-opacity="1" fill-rule="nonzero"/><path fill="#f3d4b7" d="M 109.414062 197.441406 L 264.8125 197.441406 C 266.003906 197.441406 266.914062 198.390625 266.742188 199.449219 L 252.023438 295.039062 L 122.203125 295.039062 L 107.484375 199.449219 C 107.3125 198.390625 108.226562 197.441406 109.414062 197.441406 Z M 109.414062 197.441406 L 264.8125 197.441406 C 266.003906 197.441406 266.914062 198.390625 266.742188 199.449219 L 252.023438 295.039062 L 122.203125 295.039062 L 107.484375 199.449219 C 107.3125 198.390625 108.226562 197.441406 109.414062 197.441406 Z M 109.414062 197.441406 " fill-opacity="1" fill-rule="nonzero"/><g clip-path="url(#3da2d6a4d7)"><path fill="#feac7c" d="M 161.308594 129.066406 C 163.03125 135.300781 166.683594 142.1875 174.320312 145.9375 L 174.320312 159.820312 C 174.320312 163.039062 172.222656 165.878906 169.152344 166.816406 L 160.078125 169.816406 C 161.871094 174.136719 165.121094 177.472656 168.773438 180.019531 C 180.007812 187.847656 194.878906 187.847656 206.109375 180.019531 C 209.761719 177.472656 213.015625 174.136719 214.808594 169.816406 L 203.839844 166.121094 C 202.121094 165.597656 200.945312 164.007812 200.945312 162.203125 L 200.945312 145.554688 C 206.710938 142.160156 210.414062 136.253906 212.789062 128.78125 C 218.328125 130.6875 222.351562 121.328125 220.160156 117.285156 C 217.9375 113.195312 214.503906 116.113281 214.503906 116.113281 C 207.507812 116.925781 198.804688 101.191406 196.835938 90.917969 C 196.777344 90.605469 196.363281 90.566406 196.253906 90.863281 C 190.453125 106.378906 169.804688 122.378906 161.082031 116.1875 C 161.082031 116.1875 157.453125 113.195312 155.234375 117.285156 C 153.183594 121.0625 154.304688 129.410156 161.308594 129.066406 Z M 65.308594 294.691406 L 65.082031 305.90625 C 65.0625 306.855469 65.820312 307.632812 66.765625 307.640625 L 307.851562 309.367188 C 308.820312 309.375 309.59375 308.574219 309.558594 307.605469 L 309.105469 295.8125 C 309.070312 294.902344 308.328125 294.183594 307.417969 294.179688 L 67.011719 293.027344 C 66.082031 293.019531 65.324219 293.761719 65.308594 294.691406 Z M 65.308594 294.691406 " fill-opacity="1" fill-rule="nonzero"/></g><path fill="#000000" d="M 184.191406 243.726562 C 184.191406 245.582031 185.5 247.09375 187.113281 247.09375 C 188.726562 247.09375 190.039062 245.582031 190.039062 243.726562 C 190.039062 241.871094 188.726562 240.359375 187.113281 240.359375 C 185.503906 240.359375 184.191406 241.871094 184.191406 243.726562 Z M 188.917969 243.726562 C 188.917969 244.964844 188.109375 245.972656 187.113281 245.972656 C 186.117188 245.972656 185.308594 244.964844 185.308594 243.726562 C 185.308594 242.488281 186.117188 241.480469 187.113281 241.480469 C 188.109375 241.480469 188.917969 242.488281 188.917969 243.726562 Z M 306.453125 299.058594 C 299.191406 298.953125 291.933594 298.875 284.675781 298.804688 C 275.753906 298.714844 266.832031 298.640625 257.914062 298.578125 C 248.527344 298.511719 239.140625 298.457031 229.753906 298.417969 C 221.027344 298.382812 212.304688 298.363281 203.582031 298.363281 C 196.660156 298.367188 189.738281 298.382812 182.816406 298.449219 C 182.148438 298.457031 181.480469 298.464844 180.808594 298.472656 C 180.09375 298.480469 180.089844 299.601562 180.808594 299.59375 C 187.425781 299.511719 194.042969 299.496094 200.660156 299.488281 C 209.25 299.476562 217.839844 299.496094 226.429688 299.527344 C 235.800781 299.5625 245.167969 299.613281 254.535156 299.675781 C 263.550781 299.734375 272.566406 299.808594 281.582031 299.894531 C 289.105469 299.964844 296.632812 300.042969 304.160156 300.144531 C 304.921875 300.15625 305.6875 300.167969 306.453125 300.175781 C 307.171875 300.1875 307.171875 299.066406 306.453125 299.058594 Z M 211.128906 303.441406 C 202.972656 303.511719 194.816406 303.527344 186.664062 303.53125 C 176.332031 303.539062 166.003906 303.519531 155.675781 303.484375 C 144.722656 303.449219 133.773438 303.398438 122.820312 303.328125 C 112.828125 303.265625 102.835938 303.191406 92.84375 303.089844 C 85.3125 303.015625 77.785156 302.933594 70.257812 302.796875 C 69.566406 302.785156 68.878906 302.773438 68.191406 302.757812 C 67.472656 302.746094 67.472656 303.863281 68.191406 303.878906 C 75.328125 304.019531 82.46875 304.101562 89.605469 304.175781 C 99.414062 304.28125 109.222656 304.359375 119.027344 304.425781 C 129.949219 304.496094 140.871094 304.554688 151.792969 304.59375 C 162.25 304.632812 172.703125 304.65625 183.160156 304.652344 C 191.640625 304.652344 200.121094 304.640625 208.601562 304.582031 C 209.445312 304.574219 210.285156 304.566406 211.128906 304.5625 C 211.847656 304.554688 211.847656 303.433594 211.128906 303.441406 Z M 112.597656 298.132812 C 116.902344 298.226562 121.210938 298.234375 125.515625 298.261719 C 130.996094 298.300781 136.476562 298.328125 141.953125 298.378906 C 143.976562 298.398438 146 298.414062 148.023438 298.457031 C 148.746094 298.472656 148.746094 297.355469 148.023438 297.339844 C 143.71875 297.242188 139.410156 297.234375 135.105469 297.207031 C 129.625 297.167969 124.148438 297.140625 118.667969 297.089844 C 116.644531 297.074219 114.621094 297.058594 112.597656 297.011719 C 111.878906 296.996094 111.878906 298.117188 112.597656 298.132812 Z M 296.984375 304.339844 C 291.558594 304.339844 286.132812 304.238281 280.707031 304.191406 C 279.667969 304.183594 278.628906 304.171875 277.59375 304.171875 C 276.875 304.171875 276.871094 305.289062 277.59375 305.292969 C 283.019531 305.292969 288.445312 305.390625 293.871094 305.441406 C 294.910156 305.449219 295.949219 305.460938 296.984375 305.460938 C 297.703125 305.460938 297.707031 304.339844 296.984375 304.339844 Z M 157.289062 114.746094 C 157.171875 111.210938 157.703125 107.671875 158.511719 104.238281 C 159.414062 100.433594 160.679688 96.699219 162.273438 93.128906 C 163.152344 91.167969 164.128906 89.257812 165.230469 87.414062 C 165.601562 86.792969 164.636719 86.230469 164.265625 86.847656 C 162.253906 90.21875 160.636719 93.820312 159.328125 97.519531 C 158.03125 101.199219 157.039062 105.003906 156.515625 108.871094 C 156.253906 110.816406 156.105469 112.78125 156.171875 114.746094 C 156.195312 115.464844 157.3125 115.46875 157.289062 114.746094 Z M 154.589844 112.710938 C 153.667969 110.898438 152.972656 108.96875 152.535156 106.980469 C 152.09375 104.988281 151.910156 102.882812 152.3125 100.867188 C 152.457031 100.164062 151.378906 99.863281 151.238281 100.570312 C 150.378906 104.84375 151.691406 109.46875 153.625 113.273438 C 153.953125 113.917969 154.917969 113.351562 154.589844 112.710938 Z M 218.429688 113.128906 C 219.335938 111.230469 220.183594 109.277344 220.574219 107.199219 C 220.96875 105.117188 220.96875 102.980469 220.984375 100.863281 C 220.992188 100.144531 219.871094 100.144531 219.867188 100.863281 C 219.855469 102.875 219.871094 104.921875 219.496094 106.902344 C 219.121094 108.886719 218.332031 110.75 217.464844 112.5625 C 217.15625 113.210938 218.121094 113.777344 218.429688 113.128906 Z M 159.058594 123.644531 C 159.058594 123.640625 159.058594 123.644531 159.058594 123.640625 C 159.0625 123.625 159.085938 123.554688 159.09375 123.53125 C 159.105469 123.507812 159.132812 123.457031 159.136719 123.449219 C 159.167969 123.402344 159.195312 123.375 159.242188 123.351562 C 159.265625 123.339844 159.273438 123.335938 159.273438 123.332031 C 159.28125 123.332031 159.289062 123.332031 159.308594 123.332031 C 159.339844 123.328125 159.386719 123.328125 159.421875 123.328125 C 159.5 123.335938 159.589844 123.363281 159.667969 123.402344 C 159.910156 123.523438 160.09375 123.726562 160.230469 123.953125 C 160.398438 124.203125 160.722656 124.316406 160.996094 124.15625 C 161.25 124.003906 161.355469 123.648438 161.195312 123.386719 C 160.113281 121.78125 158.949219 120.230469 157.714844 118.738281 C 157.519531 118.507812 157.125 118.539062 156.925781 118.738281 C 156.695312 118.96875 156.730469 119.296875 156.925781 119.53125 C 157.652344 120.414062 158.34375 121.324219 159.019531 122.246094 C 158.871094 122.285156 158.726562 122.34375 158.589844 122.445312 C 157.855469 122.964844 157.65625 124.183594 158.507812 124.699219 C 159.128906 125.074219 159.691406 124.105469 159.074219 123.730469 C 159.066406 123.726562 159.066406 123.730469 159.0625 123.726562 C 159.0625 123.722656 159.0625 123.722656 159.0625 123.722656 C 159.058594 123.707031 159.054688 123.707031 159.054688 123.703125 C 159.054688 123.695312 159.054688 123.695312 159.058594 123.671875 C 159.058594 123.652344 159.058594 123.648438 159.058594 123.644531 Z M 213.785156 124.15625 C 214.058594 124.316406 214.378906 124.203125 214.546875 123.953125 C 214.683594 123.734375 214.851562 123.546875 215.078125 123.421875 C 215.152344 123.378906 215.246094 123.339844 215.320312 123.332031 C 215.367188 123.324219 215.425781 123.328125 215.46875 123.332031 C 215.492188 123.332031 215.5 123.332031 215.503906 123.332031 C 215.507812 123.335938 215.515625 123.339844 215.535156 123.351562 C 215.578125 123.371094 215.621094 123.417969 215.625 123.425781 C 215.648438 123.457031 215.664062 123.488281 215.679688 123.519531 C 215.683594 123.53125 215.710938 123.597656 215.714844 123.613281 C 215.71875 123.632812 215.71875 123.632812 215.722656 123.640625 C 215.722656 123.648438 215.71875 123.648438 215.722656 123.671875 C 215.722656 123.695312 215.722656 123.695312 215.726562 123.703125 C 215.722656 123.710938 215.722656 123.707031 215.71875 123.722656 C 215.71875 123.722656 215.714844 123.722656 215.714844 123.726562 C 215.710938 123.726562 215.710938 123.726562 215.707031 123.730469 C 215.089844 124.105469 215.652344 125.074219 216.269531 124.699219 C 217.121094 124.183594 216.925781 122.964844 216.1875 122.445312 C 216.050781 122.34375 215.90625 122.285156 215.761719 122.246094 C 216.433594 121.324219 217.125 120.414062 217.855469 119.53125 C 218.046875 119.300781 218.082031 118.96875 217.855469 118.738281 C 217.65625 118.539062 217.257812 118.503906 217.066406 118.738281 C 215.832031 120.230469 214.667969 121.78125 213.582031 123.386719 C 213.425781 123.644531 213.527344 124.003906 213.785156 124.15625 Z M 215.714844 123.734375 C 215.710938 123.738281 215.707031 123.742188 215.691406 123.765625 C 215.691406 123.757812 215.699219 123.746094 215.714844 123.734375 Z M 178.9375 149.121094 C 180.878906 149.769531 182.882812 150.222656 184.910156 150.480469 C 188.859375 150.984375 192.789062 150.269531 196.507812 148.90625 C 198.300781 148.253906 200.117188 147.46875 201.660156 146.328125 C 202.234375 145.90625 201.675781 144.933594 201.097656 145.363281 C 199.800781 146.320312 198.308594 147.015625 196.816406 147.601562 C 195.027344 148.296875 193.171875 148.839844 191.285156 149.191406 C 187.511719 149.894531 183.710938 149.40625 180.058594 148.300781 C 178.253906 147.753906 176.4375 147.070312 174.867188 146.007812 C 174.269531 145.605469 173.707031 146.574219 174.300781 146.976562 C 175.714844 147.929688 177.332031 148.582031 178.9375 149.121094 Z M 188.6875 126.324219 C 188.925781 120.976562 188.976562 115.628906 188.824219 110.277344 C 188.800781 109.558594 187.683594 109.554688 187.707031 110.277344 C 187.859375 115.628906 187.808594 120.976562 187.570312 126.324219 C 187.539062 127.046875 188.65625 127.042969 188.6875 126.324219 Z M 197.613281 108.882812 C 199.457031 108.609375 201.238281 109.769531 202.214844 111.292969 C 202.601562 111.898438 203.570312 111.339844 203.179688 110.730469 C 201.90625 108.742188 199.699219 107.453125 197.3125 107.804688 C 197.015625 107.847656 196.851562 108.226562 196.925781 108.492188 C 197.011719 108.8125 197.3125 108.925781 197.613281 108.882812 Z M 191.347656 76.121094 C 191.421875 76.148438 191.492188 76.171875 191.566406 76.199219 C 191.59375 76.210938 191.621094 76.222656 191.652344 76.234375 C 191.652344 76.234375 191.699219 76.253906 191.71875 76.261719 C 191.742188 76.273438 191.769531 76.285156 191.769531 76.285156 C 191.800781 76.296875 191.828125 76.308594 191.855469 76.324219 C 191.925781 76.355469 191.992188 76.390625 192.0625 76.425781 C 192.320312 76.558594 192.566406 76.714844 192.804688 76.882812 C 192.828125 76.902344 192.851562 76.921875 192.878906 76.9375 C 192.886719 76.945312 192.886719 76.945312 192.894531 76.949219 C 192.945312 76.992188 193 77.035156 193.054688 77.078125 C 193.164062 77.171875 193.273438 77.273438 193.375 77.375 C 193.480469 77.476562 193.582031 77.582031 193.675781 77.691406 C 193.726562 77.75 193.777344 77.808594 193.824219 77.867188 C 193.84375 77.890625 193.863281 77.914062 193.882812 77.9375 C 193.800781 77.839844 193.898438 77.957031 193.90625 77.972656 C 194.082031 78.207031 194.398438 78.347656 194.671875 78.171875 C 194.902344 78.023438 195.058594 77.65625 194.871094 77.40625 C 194.054688 76.304688 192.945312 75.484375 191.644531 75.042969 C 191.367188 74.949219 191.023438 75.148438 190.957031 75.433594 C 190.886719 75.742188 191.050781 76.023438 191.347656 76.121094 Z M 198.875 79.84375 C 198.921875 79.800781 198.972656 79.761719 199.023438 79.722656 C 199.039062 79.710938 199.132812 79.644531 199.144531 79.636719 C 199.261719 79.554688 199.382812 79.476562 199.503906 79.40625 C 199.613281 79.34375 199.722656 79.285156 199.835938 79.234375 C 199.855469 79.222656 200.046875 79.140625 199.949219 79.179688 C 200.015625 79.152344 200.082031 79.128906 200.148438 79.105469 C 200.722656 78.898438 201.113281 78.832031 201.679688 78.835938 C 201.972656 78.835938 202.253906 78.578125 202.238281 78.277344 C 202.226562 77.972656 201.992188 77.714844 201.679688 77.714844 C 200.359375 77.710938 199.089844 78.195312 198.085938 79.050781 C 197.859375 79.242188 197.875 79.648438 198.085938 79.84375 C 198.324219 80.0625 198.636719 80.046875 198.875 79.84375 Z M 193.226562 81.21875 C 192.839844 81.21875 192.449219 81.21875 192.0625 81.21875 C 191.917969 81.21875 191.765625 81.28125 191.664062 81.382812 C 191.570312 81.480469 191.496094 81.636719 191.503906 81.777344 C 191.515625 82.082031 191.746094 82.335938 192.0625 82.335938 C 192.449219 82.335938 192.839844 82.335938 193.226562 82.335938 C 193.371094 82.335938 193.519531 82.273438 193.621094 82.171875 C 193.71875 82.078125 193.792969 81.917969 193.785156 81.777344 C 193.773438 81.472656 193.539062 81.21875 193.226562 81.21875 Z M 178.183594 123.863281 C 179.269531 123.863281 180.148438 122.507812 180.148438 120.832031 C 180.148438 119.160156 179.269531 117.800781 178.183594 117.800781 C 177.09375 117.800781 176.214844 119.160156 176.214844 120.832031 C 176.214844 122.507812 177.09375 123.863281 178.183594 123.863281 Z M 197.859375 123.863281 C 198.945312 123.863281 199.828125 122.507812 199.828125 120.832031 C 199.828125 119.160156 198.945312 117.800781 197.859375 117.800781 C 196.773438 117.800781 195.890625 119.160156 195.890625 120.832031 C 195.890625 122.507812 196.773438 123.863281 197.859375 123.863281 Z M 180.1875 132.613281 C 181.570312 134.632812 183.765625 135.753906 186.152344 136.082031 C 188.789062 136.445312 191.605469 136.0625 193.746094 134.382812 C 194.394531 133.875 194.960938 133.261719 195.402344 132.558594 C 195.785156 131.949219 194.820312 131.386719 194.4375 131.996094 C 193.65625 133.234375 192.332031 134.1875 190.902344 134.65625 C 188.597656 135.40625 185.71875 135.265625 183.550781 134.140625 C 182.597656 133.644531 181.765625 132.941406 181.152344 132.050781 C 180.75 131.460938 179.78125 132.019531 180.1875 132.613281 Z M 86.332031 277.628906 C 86.335938 277.628906 86.34375 277.628906 86.347656 277.628906 L 90.867188 277.484375 C 91.175781 277.472656 91.417969 277.214844 91.410156 276.902344 C 91.398438 276.597656 91.160156 276.367188 90.832031 276.363281 L 86.3125 276.507812 C 86.003906 276.519531 85.761719 276.777344 85.773438 277.085938 C 85.78125 277.390625 86.03125 277.628906 86.332031 277.628906 Z M 84.558594 281.71875 L 87.910156 281.863281 C 87.917969 281.867188 87.925781 281.867188 87.933594 281.867188 C 88.230469 281.867188 88.480469 281.628906 88.492188 281.328125 C 88.507812 281.019531 88.265625 280.757812 87.957031 280.746094 L 84.605469 280.601562 C 84.332031 280.570312 84.039062 280.824219 84.023438 281.136719 C 84.011719 281.445312 84.25 281.707031 84.558594 281.71875 Z M 83.269531 285.519531 L 89.828125 285.519531 C 90.136719 285.519531 90.386719 285.265625 90.386719 284.957031 C 90.386719 284.648438 90.136719 284.398438 89.828125 284.398438 L 83.269531 284.398438 C 82.960938 284.398438 82.710938 284.648438 82.710938 284.957031 C 82.710938 285.265625 82.960938 285.519531 83.269531 285.519531 Z M 83.269531 285.519531 " fill-opacity="1" fill-rule="nonzero"/></svg>